<svg version="1" xmlns="http://www.w3.org/2000/svg" width="1365.333" height="1365.333" viewBox="0 0 1024.000000 1024.000000"><path d="M505.2 111.5c-5.6 1.7-11.3 5.7-15.6 10.9-4.1 5.1-5.5 7.4-17.3 29.6-2.5 4.7-6.2 11.6-8.3 15.5-2.1 3.8-6.3 11.9-9.5 18-3.2 6-7 13.2-8.5 16-1.5 2.7-5.3 9.9-8.5 16-3.2 6-7 13.2-8.5 16-1.5 2.7-4.9 9-7.5 14-9.7 18.3-11.8 22.1-15.3 28-2 3.3-3.8 6.2-4.1 6.5-.3.3-2.4 2.7-4.6 5.5-10.9 13.7-33.1 31.4-49.5 39.4-12.4 6.1-23.8 9.7-40.2 12.7-4.3.8-11.5 2.1-16 2.9-4.6.9-9.9 1.8-11.8 2.1-1.9.3-4.3.7-5.2 1-1 .3-3 .7-4.5 1-3.1.5-17.6 3.2-20.8 3.8-2.6.5-18.2 3.4-22 4.1-1.6.2-4.1.7-5.5 1-1.4.3-5 .9-8 1.5s-6.5 1.2-7.8 1.4c-9.3 1.9-31 5.9-32.2 6.1-7.2.9-20.1 4.4-24.4 6.7-5.3 2.7-11 8.5-13.2 13.3-3.7 8.1-3.4 15.6 1.1 24.5 3.8 7.5 5.9 9.8 53.5 59.3 5.8 6 13.4 13.9 16.9 17.5 3.5 3.7 14.5 15.2 24.5 25.6 9.9 10.4 19.2 20.1 20.6 21.6 14.7 15.5 26 36.4 32.4 60.1 1.4 5.2 2.8 10.7 3.1 12.4.2 1.6.8 4.1 1.1 5.5.3 1.4.7 8.6.9 16 .3 11.9-.1 16.9-1.9 29.5-.3 1.6-.8 5.2-1.1 8-.8 6.4-1.5 12.2-2.1 16-.7 5.2-4.4 33.8-4.9 38-.5 3.4-1.3 9.7-4.1 31-.3 2.2-.7 5.2-.9 6.6-.3 1.4-.7 5.1-1 8.1-.3 3-.7 6.3-.9 7.4-.2 1-.7 4.4-1.1 7.4-.3 3-.8 6.6-1 8-2.4 16.8-2.4 21.1-.1 31.6.9 4.2 4.5 10.1 8 13.2 6.1 5.4 17.2 7.2 27.5 4.5 5.9-1.6 10.4-3.6 51.6-23.8 81.8-40 96.1-47 105-50.7 8.3-3.4 18.9-6.2 30.4-7.8 8.7-1.2 31.5-1.5 38.6-.5 12.2 1.7 26.8 5 29 6.5.6.4 2.7 1.3 4.9 2 2.1.7 12 5.2 22 10 9.9 4.8 21.5 10.3 25.6 12.3 14.8 7 36.7 17.4 67 31.9 40 19.2 41.5 19.8 52.4 19.4 16.8-.5 25.7-11.4 25.8-31.4 0-3.7-.3-8.8-.7-11.2-1-6.4-1.2-8.4-2.5-18-1.7-12.8-2-15.3-2.5-18-.3-1.4-.7-4.8-1.1-7.5-.3-2.8-.7-5.7-.9-6.5-.1-.8-.6-4.4-1-8-.4-3.6-.9-7.2-1-8-.4-2-2.3-15.5-3-20.5-.2-2.2-1.4-10.5-2.5-18.5-1.2-8-2.3-16.2-2.5-18.3-.8-6.3-1.5-11.2-2-13.6-.2-1.3-.7-4.9-1-8-.4-3.1-.8-6.7-1.1-8.1-.2-1.4-.4-6.6-.5-11.5-.1-27.7 9.5-59.1 25.4-82.6 6-8.9 6.6-9.6 26.6-30.8 17.2-18.2 18.6-19.7 34.7-36.7 7.8-8.2 15.6-16.5 17.4-18.4 1.8-1.9 9.4-10 17-18 21-22.1 22.9-24.2 26.1-28.7 10.5-14.9 10.6-28.7.3-38.7-6.5-6.4-16.7-10.2-34.4-13-1.9-.3-4.6-.8-6-1.1-1.4-.3-3.8-.7-5.5-1-3-.5-10.3-1.8-41.5-7.5-9.1-1.6-18.1-3.2-20-3.5-1.9-.3-15.9-2.8-31-5.5s-29.3-5.2-31.5-5.5c-2.2-.4-4.8-.8-5.7-1.1-.9-.3-2.5-.7-3.5-.9-21.5-4.4-46.7-18.4-66.3-36.8-12.2-11.5-19.6-21.9-31.5-44.2-2.7-5-10.2-18.9-16.8-31-6.6-12.1-13.5-24.9-15.4-28.5-1.9-3.6-3.9-7.2-4.4-8-.5-.8-7.7-14.1-16-29.5s-16.6-30.1-18.5-32.6c-8.5-11.6-20.2-16.7-31.2-13.4z"/><path d="M258.9 129.1c-11.2 1.2-22.2 8.7-27.1 18.3-8.4 16.4-4.8 37.8 10.4 61.6 11.4 17.7 42.7 48.5 67.3 66.1 47.5 34.1 61.1 24.3 44.2-31.6-8.5-28-28.5-68.4-42.3-85.5-16.3-20.1-35.7-30.8-52.5-28.9zM755.2 129.2c-9.3 1.4-21.6 7.8-30.8 16.1-19.1 17.2-42.8 60.9-54.9 101.2-1.8 6-3.6 12.3-3.9 14-.4 1.6-.9 4.1-1.2 5.5-.3 1.4-.7 6.1-1 10.4-.4 9.9 1.6 15.5 6.5 17.6 12.5 5.1 48.3-17.3 83.7-52.5 23.7-23.5 34.5-39.1 40.5-58.2 2.3-7.5 3.2-18.7 1.8-25.6-3.5-18.7-21.5-31.3-40.7-28.5zM195 592.7c-5.4.4-33.3 4-37.4 4.8-21.6 4.3-33.6 8.2-46.1 14.9-20.4 11-30.8 25.3-30.7 42.1.1 30.1 31.7 44.7 71.7 33 10-2.9 21.1-7.3 31.8-12.6 38.9-19.5 72.5-44.5 80.9-60.2 5.2-9.6-.8-16.6-17.3-20.3-7.1-1.6-40.3-2.6-52.9-1.7zM788.9 592.4c-.2.2-3.1.6-6.4 1-7.3.8-18.2 4.1-21.1 6.5-7.6 6.2-5.3 14.2 7.8 27.7 4.6 4.7 9.7 9.4 11.3 10.4 1.7 1.1 4.2 2.9 5.5 4.1 3.7 3.1 26.5 18.2 34 22.4 26.4 14.6 49.3 23.9 64.9 26.2 6.4.9 20.5 1 25.6 0 8.5-1.5 18.8-7 23.9-13 13.9-15.8 11.6-37.8-5.8-54-12.4-11.6-36.9-22.2-58.1-25.2-2.2-.4-5.6-1-7.5-1.5-1.9-.5-5.7-1.1-8.5-1.4-9.7-1.1-14-1.7-17.5-2.2-4-.6-47.6-1.5-48.1-1zM514.3 782.7c-4.3 4.1-8.7 10.9-12.6 19.4-2.7 6-9.6 26.8-12.2 36.9-2.5 9.6-3.1 12.4-3.9 17.5-.4 2-.8 4-1 4.4-.3.3-.7 2.5-1 4.7-.4 2.2-.8 5-1.1 6.3-.2 1.3-.7 4.9-1.1 8-.3 3.1-.8 6.5-1.1 7.6-.2 1.1-.6 9-.7 17.5-.4 20.9 2.2 34.4 9.3 47 10.4 18.6 30.3 26.2 47.5 18.2 13.5-6.3 22-19 26.7-39.7 1.4-6.3 1.7-11.5 1.5-24.5-.4-21.9-3.1-40.7-9.7-66.3-6.9-26.9-15.2-46.7-23.4-55.4-4.5-4.7-5.5-5.3-9.2-5.3-3.4 0-4.8.7-8 3.7z"/></svg>