<svg id="icon" viewBox="0 0 24 24" xmlns="http://www.w3.org/2000/svg"><path d="M13.74 9.901l-1.188 1.188a.288.288 0 0 1-.239.072h-.001l-2.688-.624-.084.084 1.968 1.032a.245.245 0 0 1 .062.392l-.005.005-1.197 1.197-.005.005a.239.239 0 0 1-.208.067h-.001l-.612-.084.672.384a.185.185 0 0 1 .096.097l-.001-.001.373.661-.086-.614a.24.24 0 0 1 .067-.211l.005-.005 1.187-1.187.005-.005a.239.239 0 0 1 .21-.067h.001a.214.214 0 0 1 .18.134l-.001-.001 1.034 1.97.084-.084-.626-2.69a.286.286 0 0 1 .072-.239l1.188-1.188a.219.219 0 0 0 .002-.286v-.001c-.044-.07-.192-.071-.264.001z"/><path d="M13.908 1.213l-1.392 1.392a1.07 1.07 0 0 1-1.514 1.514l-9.79 9.79-.003.003a1.71 1.71 0 0 0 0 2.417l.004.004 6.456 6.456.003.003a1.71 1.71 0 0 0 2.417 0l.004-.004 9.79-9.79a1.085 1.085 0 0 1 .06-1.451 1.07 1.07 0 0 1 1.448-.062l.003.003 1.392-1.392.003-.003a1.71 1.71 0 0 0 0-2.417l-.004-.004-6.456-6.456-.003-.003a1.71 1.71 0 0 0-2.417 0l-.002.002zM6.744 12.984l1.92-1.92a.17.17 0 0 1 .248-.009.17.17 0 0 1-.009.248l-1.92 1.92-.007.007a.16.16 0 0 1-.227 0l-.007-.008a.17.17 0 0 1 .001-.24zm2.7-1.452a.17.17 0 0 1 .248-.009.17.17 0 0 1-.009.248l-1.021 1.021a.17.17 0 0 1-.248.009.17.17 0 0 1 .009-.248zm-1.719 7.911c.099.099.099.261 0 .36s-.261.099-.36 0l-3.168-3.168c-.099-.099-.099-.261 0-.36s.261-.099.36 0zm.06-1.308c.099.099.099.261 0 .36s-.261.099-.36 0l-1.92-1.92c-.099-.099-.099-.261 0-.36s.261-.099.36 0zm5.062-2.878l-1.915 1.915a.17.17 0 0 1-.248.009.17.17 0 0 1 .009-.248l1.92-1.92.007-.007a.16.16 0 0 1 .227 0l.007.008a.183.183 0 0 1 0 .239zm-1.531.211a.17.17 0 0 1-.24-.24l1.021-1.021a.17.17 0 0 1 .24.24zm3.084-4.907l-1.092 1.092.624 2.688a.286.286 0 0 1-.072.239l-.432.432-.005.005a.239.239 0 0 1-.21.067h-.001a.214.214 0 0 1-.18-.134l.001.001-1.03-1.966-.864.864.084.636a.24.24 0 0 1-.067.211l-.005.005-.324.324-.005.005a.239.239 0 0 1-.21.067h-.001a.214.214 0 0 1-.18-.134l.001.001-.504-.912-.914-.506a.319.319 0 0 1-.133-.181l.001.002a.24.24 0 0 1 .067-.211l.005-.005.324-.324.005-.005a.239.239 0 0 1 .21-.067h.001l.636.084.864-.864-1.992-1.056a.245.245 0 0 1-.062-.392l.005-.005.431-.431a.288.288 0 0 1 .239-.072h.001l2.688.624 1.092-1.092a.717.717 0 0 1 1.008 0 .729.729 0 0 1-.004 1.009zm4.608-.456c.099.099.099.261 0 .36s-.261.099-.36 0l-.12-.12c-.099-.099-.099-.261 0-.36s.261-.099.36 0zm-.84-.84c.099.099.099.261 0 .36s-.261.099-.36 0l-.12-.12c-.099-.099-.099-.261 0-.36s.261-.099.36 0zm-.84-.84c.099.099.099.261 0 .36s-.261.099-.36 0l-.121-.121c-.099-.099-.099-.261 0-.36s.261-.099.36 0zm-.839-.84c.099.099.099.261 0 .36s-.261.099-.36 0l-.121-.121c-.099-.099-.099-.261 0-.36s.261-.099.36 0zm-.84-.84c.099.099.099.261 0 .36s-.261.099-.36 0l-.121-.121c-.099-.099-.099-.261 0-.36s.261-.099.36 0zm-.84-.84c.099.099.099.261 0 .36s-.261.099-.36 0l-.121-.121c-.099-.099-.099-.261 0-.36s.261-.099.36 0zm-.84-.84c.099.099.099.261 0 .36s-.261.099-.36 0l-.121-.121c-.099-.099-.099-.261 0-.36s.261-.099.36 0zm.84-.983l.816-.816-.289-.289.192-.192.804.804-.192.192-.288-.288-.816.816zm.804.804l1.008-1.008.227.227-1.008 1.008zm5.601 3.585l-.192.192-.288-.288-.815.815-.227-.227.816-.816-.288-.288.192-.192zm-1.056-1.055l-.18.18-.442-.442-.216.216.397.397-.18.18-.397-.397-.24.24.454.454-.18.18-.681-.681 1.008-1.008.672.672zm-1.56-1.561l-.454.454.777-.13.252.252-.732.108-.228.948-.251-.251.168-.648-.302.038-.252.252-.227-.227 1.008-1.008.227.227zm-.732-.3l-.288-.096a.364.364 0 0 0-.093-.357l-.002-.002c-.144-.144-.372-.157-.588.06s-.204.444-.06.588l.002.002a.364.364 0 0 0 .355.093l.002-.001.096.288a.68.68 0 0 1-.636-.181l-.025-.026.001.001-.015-.014a.677.677 0 0 1 0-.958l.04-.037-.002.002a.67.67 0 0 1 .988-.046l.022.023-.001-.001a.619.619 0 0 1 .205.66l-.001.003z"/></svg>
