<svg id="icon" viewBox="0 0 23 24" xmlns="http://www.w3.org/2000/svg"><path d="M10.095 13.221a1.22 1.22 0 1 1 0-2.44 1.22 1.22 0 0 1 0 2.44zm8.028-5.124c-1.731 1.473-3.041 2.684-5.262 3.377a2.823 2.823 0 0 0-1.389-1.92l-.014-.007c.866-2.231 1.464-5.216.994-6.625C11.754.827 9.485-.843 5.12.453.331 1.876-.113 5.998 2.701 6.999c2.144.763 3.852 1.291 5.563 2.874a2.797 2.797 0 0 0-.987 2.126c0 .016.005.031.005.047-2.364.367-5.242 1.341-6.226 2.451-1.464 1.652-1.778 4.452 1.528 7.584 3.626 3.435 7.418 1.759 6.878-1.178-.412-2.239-.809-3.982-.293-6.254.275.103.593.165.925.168h.002a2.772 2.772 0 0 0 1.457-.414l-.012.007c1.499 1.864 3.784 3.874 5.238 4.171 2.164.443 4.745-.686 5.804-5.115 1.162-4.859-2.186-7.305-4.459-5.369z"/></svg>
