<svg viewBox="0 0 1280 218" xmlns="http://www.w3.org/2000/svg" fill-rule="evenodd" clip-rule="evenodd" stroke-linejoin="round" stroke-miterlimit="1.414"><path d="M19.667 39.346c11.004 0 19.433-8.897 19.433-19.433C39.1 9.143 30.67.714 19.667.714 8.897.714 0 9.143 0 19.913c0 10.536 8.897 19.433 19.667 19.433zM2.575 170.46h33.95V50.818H2.574V170.46zm114.725 2.81c27.16 0 44.72-13.346 52.68-40.505l-32.545-9.366c-3.512 11.239-10.301 17.326-20.135 17.326-12.175 0-21.54-11.94-21.54-29.969 0-17.794 9.365-30.203 22.008-30.203 9.366 0 16.155 6.322 19.667 15.453l32.31-10.536c-8.193-25.99-26.925-37.461-52.445-37.461-33.48 0-55.958 24.115-55.958 62.747 0 39.334 22.477 62.513 55.958 62.513zm125.027 0c33.715 0 55.02-23.18 55.02-62.514 0-38.632-21.305-62.747-55.02-62.747-33.95 0-55.49 24.115-55.49 62.747 0 39.334 21.54 62.513 55.49 62.513zm0-32.779c-13.112 0-21.54-11.004-21.54-29.735 0-18.73 8.428-29.969 21.54-29.969 13.345 0 21.071 11.239 21.071 29.97 0 18.73-7.726 29.734-21.071 29.734zm153.59 29.969h33.95V92.728c0-34.886-23.18-44.72-41.442-44.72-14.516 0-25.286 5.152-32.544 13.815V50.818h-33.95V170.46h33.95v-62.748c0-18.028 6.087-26.925 21.071-26.925 14.048 0 18.965 8.429 18.965 27.394v62.279zm104.189 2.81c29.032 0 47.997-13.346 47.997-37.228 0-25.052-21.54-33.48-39.334-39.334-12.41-3.043-23.413-7.726-23.413-13.111 0-5.151 5.619-7.726 14.047-7.726 7.727 0 14.048 1.873 22.945 10.067l22.009-18.028c-9.365-10.536-23.882-19.901-44.954-19.901-24.115 0-44.485 12.175-44.485 33.949 0 21.774 14.985 30.905 42.378 40.037 14.282 5.385 20.37 8.194 20.37 14.047 0 6.79-6.79 9.366-16.624 9.366-11.94 0-23.413-8.429-28.33-13.346l-21.774 18.497c9.834 13.813 29.5 22.71 49.168 22.71zm121.748 0c20.604 0 35.589-8.43 46.593-21.775l-19.667-19.667c-7.493 8.897-14.985 12.643-26.926 12.643-12.643 0-22.944-6.321-23.647-22.242h76.561c.937-6.088.937-13.112.937-17.56 0-38.398-23.647-56.66-53.85-56.66-34.886 0-56.895 24.115-56.895 62.513 0 39.334 21.54 62.747 56.894 62.747zm-23.413-76.562c1.64-12.643 10.068-19.9 22.009-19.9 14.048 0 21.072 7.257 22.71 19.9h-44.719zm136.031 76.562c10.536 0 19.433-1.64 27.16-5.386l3.745-28.564c-7.258 3.278-14.048 4.683-20.603 4.683-3.278 0-6.79-2.107-6.79-6.79v-56.66h25.989V50.818h-25.989V1.417l-33.715 16.155v33.246h-16.39v29.735h16.39v59.938c0 21.072 8.897 32.778 30.203 32.778zm92.248 0c29.032 0 47.997-13.346 47.997-37.228 0-25.052-21.54-33.48-39.334-39.334-12.41-3.043-23.413-7.726-23.413-13.111 0-5.151 5.619-7.726 14.048-7.726 7.726 0 14.048 1.873 22.945 10.067L870.97 67.91c-9.365-10.536-23.882-19.901-44.953-19.901-24.116 0-44.485 12.175-44.485 33.949 0 21.774 14.984 30.905 42.377 40.037 14.282 5.385 20.37 8.194 20.37 14.047 0 6.79-6.79 9.366-16.623 9.366-11.941 0-23.414-8.429-28.33-13.346l-21.775 18.497c9.834 13.813 29.5 22.71 49.168 22.71zm84.288 0c11.94 0 21.304-8.663 21.304-20.37 0-11.473-9.364-20.838-21.304-20.838-11.941 0-20.838 9.365-20.838 20.838 0 11.707 8.897 20.37 20.838 20.37zm96.929 0c33.715 0 55.021-23.18 55.021-62.514 0-38.632-21.306-62.747-55.021-62.747-33.95 0-55.49 24.115-55.49 62.747 0 39.334 21.54 62.513 55.49 62.513zm0-32.779c-13.111 0-21.54-11.004-21.54-29.735 0-18.73 8.429-29.969 21.54-29.969 13.346 0 21.072 11.239 21.072 29.97 0 18.73-7.726 29.734-21.072 29.734zm79.605 29.969h33.949v-64.855c0-19.199 9.834-24.818 20.604-24.818 9.833 0 15.92 3.746 21.306 8.195l4.448-30.906c-5.853-6.087-13.345-10.067-23.647-10.067-12.41 0-20.37 8.897-22.711 13.58v-10.77h-33.95v119.64zM1246.05 50.818v5.151c-7.025-6.555-14.751-7.96-23.882-7.96-29.267 0-49.636 24.115-49.636 62.513 0 41.676 20.37 62.747 49.636 62.747 7.492 0 16.623-.702 23.881-7.492-.234 18.263-11.706 19.901-41.91 22.477l19.434 29.032c49.87-3.98 56.425-24.584 56.425-67.664V50.818h-33.949zm0 82.415c-4.215 4.917-8.664 7.258-18.731 7.258-15.219 0-20.838-12.877-20.838-29.969 0-19.199 7.726-29.735 20.838-29.735 12.409 0 15.687 5.151 18.73 7.727v44.719z" fill-rule="nonzero"/></svg>