<svg id="icon" viewBox="0 0 24 24" width="24" height="24" xmlns="http://www.w3.org/2000/svg"><path d="M14.845 13.53l.87 6.257c.073.525.48.723.909.44l.632-.417a.938.938 0 0 1 1.3.277l.382.573a.89.89 0 0 0 1.279.234l.036-.027c.41-.303.518-.908.229-1.344l-.382-.574c-.288-.433-.2-1.054.198-1.381l.589-.483c.405-.332.362-.797-.082-1.05l-5.288-3c-.443-.252-.745-.031-.672.495zm-1.815.28c-.292-2.098 1.587-3.48 3.358-2.475l5.287 3.002c1.61.913 1.788 3.083.339 4.271l-.589.483a.936.936 0 0 0 .178-1.249l.381.574c.872 1.31.56 3.12-.68 4.033l-.035.026c-1.244.917-2.962.602-3.833-.707l-.382-.574a.839.839 0 0 0 1.176.252l-.632.417c-1.55 1.023-3.433.11-3.698-1.796l-.87-6.258zM4 4v16H2V2h20v9.005c0 .55-.444.995-1 .995-.552 0-1-.456-1-.995V4H4zM2 20h9.005c.55 0 .995.444.995 1 0 .552-.456 1-.995 1H2v-2z" fill-rule="nonzero"/></svg>
