<svg id="icon" viewBox="0 0 24 24" width="24" height="24" xmlns="http://www.w3.org/2000/svg"><path d="M12.016 19s6.31-3.536 7.659-7.497c.957-2.811 0-6.503-3.83-6.503-3.828 0-2.828 4-3.829 4-1 0 0-4-3.812-4C4.39 5 3.4 8.692 4.358 11.503 5.704 15.456 12.016 19 12.016 19zm3.83-16c5.026 0 7.235 4.705 5.722 9.148-.67 1.97-2.193 3.816-4.306 5.6a30.067 30.067 0 0 1-2.914 2.162c-.597.391-1.069.675-1.354.835l-.978.548-.979-.55c-.285-.16-.756-.443-1.353-.835-.99-.649-1.98-1.373-2.913-2.16-2.114-1.787-3.637-3.633-4.306-5.6C.955 7.714 3.19 3 8.204 3c1.69 0 2.948.561 3.815 1.534C12.89 3.56 14.152 3 15.846 3zM8.25 7c-.294 0-.681.065-1.085.267C6.45 7.624 6 8.299 6 9.25a.75.75 0 0 0 1.5 0c0-.362.112-.53.335-.642.159-.079.334-.108.415-.108a.75.75 0 0 0 0-1.5z" fill-rule="nonzero"/></svg>
