<svg id="icon" viewBox="0 0 24 24" width="24" height="24" xmlns="http://www.w3.org/2000/svg"><path d="M12 13a1 1 0 1 0 0-2 1 1 0 0 0 0 2zm0 2a3 3 0 1 1 0-6 3 3 0 0 1 0 6zm3-11a1 1 0 0 1 0-2c4.347 0 8 4.384 8 10s-3.653 10-8 10a1 1 0 0 1 0-2c3.153 0 6-3.416 6-8s-2.847-8-6-8zm-1 4a1 1 0 0 1 0-2c2.732 0 5 2.646 5 6s-2.268 6-5 6a1 1 0 0 1 0-2c1.553 0 3-1.688 3-4 0-2.312-1.447-4-3-4zM9 2a1 1 0 1 1 0 2c-3.153 0-6 3.416-6 8s2.847 8 6 8a1 1 0 0 1 0 2c-4.347 0-8-4.384-8-10S4.653 2 9 2zm1 4a1 1 0 1 1 0 2c-1.553 0-3 1.688-3 4 0 2.312 1.447 4 3 4a1 1 0 1 1 0 2c-2.732 0-5-2.646-5-6s2.268-6 5-6z" fill-rule="nonzero"/></svg>
