<svg id="icon" viewBox="0 0 24 24" width="24" height="24" xmlns="http://www.w3.org/2000/svg"><path d="M9.202 9.496h-3.2L6 14.507c0 .002 3.202.003 3.202.003L11 17.217V6.787L9.202 9.496zm-3.2 7.02C4.896 16.517 4 15.618 4 14.508V9.498c0-1.11.897-2.01 2.002-2.01h2.13l2.485-3.745c.86-1.295 2.383-.8 2.383.73v15.055c0 1.542-1.53 2.014-2.382.731L8.13 16.517h-2.13zM14 8V6c.766 0 1.846.18 2.947.73C18.837 7.677 20 9.42 20 12c0 2.58-1.163 4.324-3.053 5.27-1.101.55-2.18.73-2.947.73v-2c.104 0 .324-.016.617-.065.494-.082.986-.23 1.436-.454C17.288 14.863 18 13.795 18 12s-.712-2.863-1.947-3.48a5.095 5.095 0 0 0-1.436-.455A4.195 4.195 0 0 0 14 8zm0 3V9c.391 0 .908.086 1.447.356C16.4 9.832 17 10.732 17 12c0 1.268-.6 2.168-1.553 2.644A3.277 3.277 0 0 1 14 15v-2c.109 0 .342-.039.553-.144.297-.15.447-.374.447-.856s-.15-.707-.447-.856A1.403 1.403 0 0 0 14 11z" fill-rule="nonzero"/></svg>
