<svg id="icon" viewBox="0 0 24 24" width="24" height="24" xmlns="http://www.w3.org/2000/svg"><path d="M3 5.994v12.012C3 19.106 3.893 20 4.995 20h14.01A1.994 1.994 0 0 0 21 18.006V5.994C21 4.894 20.107 4 19.005 4H4.995A1.994 1.994 0 0 0 3 5.994zm-2 0A3.994 3.994 0 0 1 4.995 2h14.01A3.996 3.996 0 0 1 23 5.994v12.012A3.994 3.994 0 0 1 19.005 22H4.995A3.996 3.996 0 0 1 1 18.006V5.994zm4.267 5.704a1.047 1.047 0 0 1 0-1.396.9.9 0 0 1 1.346 0L10 14l-3.387 3.698a.9.9 0 0 1-1.346 0 1.047 1.047 0 0 1 0-1.396L7.375 14l-2.108-2.302zM11 17c0-.552.453-1 .997-1h6.006c.55 0 .997.444.997 1 0 .552-.453 1-.997 1h-6.006A.996.996 0 0 1 11 17zM3 6h19v2H3V6z" fill-rule="nonzero"/></svg>
