<svg id="icon" viewBox="0 0 48 48" xmlns="http://www.w3.org/2000/svg" width="48" height="48"><path d="M24 48c-9.939 0-18-8.058-18-18a3 3 0 1 1 6 0c0 6.627 5.373 12 12 12s12-5.373 12-12c0-1.659 1.341-3 3-3s3 1.341 3 3c0 9.942-8.061 18-18 18zm4.5-42c-.825 0-1.5.672-1.5 1.5S27.675 9 28.5 9H33v3h-4.5c-.825 0-1.5.672-1.5 1.5s.675 1.5 1.5 1.5H33v3h-4.5c-.825 0-1.5.672-1.5 1.5s.675 1.5 1.5 1.5H33v3h-4.5c-.825 0-1.5.672-1.5 1.5s.675 1.5 1.5 1.5H33v3c0 4.968-4.032 9-9 9-4.971 0-9-4.032-9-9v-3h4.5a1.5 1.5 0 0 0 0-3H15v-3h4.5a1.5 1.5 0 0 0 0-3H15v-3h4.5a1.5 1.5 0 0 0 0-3H15V9h4.5a1.5 1.5 0 0 0 0-3h-3.948C16.791 2.511 20.088 0 24 0c3.915 0 7.209 2.511 8.448 6H28.5z"/></svg>
