<svg id="icon" viewBox="0 0 48 48" xmlns="http://www.w3.org/2000/svg" width="48" height="48"><path d="M39 48H9c-4.971 0-9-4.032-9-9V9C0 5.088 2.514 1.791 6 .552V4.5a4.5 4.5 0 1 0 9 0V0h18v4.5a4.5 4.5 0 1 0 9 0V.552C45.486 1.791 48 5.088 48 9v30c0 4.968-4.029 9-9 9zm3-33H6v24c0 1.659 1.341 3 3 3h30c1.659 0 3-1.341 3-3V15zM30 30h6v6h-6v-6zm0-9h6v6h-6v-6zm-9 9h6v6h-6v-6zm0-9h6v6h-6v-6zm-9 9h6v6h-6v-6zm0-9h6v6h-6v-6zM37.5 6A1.5 1.5 0 0 1 36 4.5V0h3v4.5A1.5 1.5 0 0 1 37.5 6zm-27 0A1.5 1.5 0 0 1 9 4.5V0h3v4.5A1.5 1.5 0 0 1 10.5 6z"/></svg>
