<svg id="icon" viewBox="0 0 48 48" xmlns="http://www.w3.org/2000/svg" width="48" height="48"><path d="M45.363 4.032A6 6 0 0 0 42 3a6 6 0 0 0-2.229.432l-15 6c-.282.111-.513.297-.771.45-.258-.153-.489-.339-.771-.45l-15-6A6 6 0 0 0 6 3a6 6 0 0 0-6 6v27a6.001 6.001 0 0 0 3.771 5.571l15 6c.72.288 1.476.429 2.229.429 1.05 0 2.073-.318 3-.858.927.54 1.95.858 3 .858.753 0 1.509-.141 2.229-.429l15-6A6.001 6.001 0 0 0 48 36V9a5.995 5.995 0 0 0-2.637-4.968zM21 42L6 36V9l15 6v27zm21-6l-15 6V15l15-6v27zM18 16.8l-9-3.6v3l9 3.6v-3zm0 6l-9-3.6v3l9 3.6v-3zm0 6l-9-3.6v3l9 3.6v-3zm0 6l-9-3.6v3l9 3.6v-3zm21-3.6l-9 3.6v3l9-3.597V31.2zm0-6l-9 3.6v3l9-3.6v-3zm0-6l-9 3.6v3l9-3.6v-3zm0-6l-9 3.6v3l9-3.6v-3z"/></svg>
