<svg id="icon" xmlns="http://www.w3.org/2000/svg" width="64" height="64" viewBox="0 0 640 640" shape-rendering="geometricPrecision" text-rendering="geometricPrecision" image-rendering="optimizeQuality" fill-rule="evenodd" clip-rule="evenodd"><path d="M23.811 162.758h549.515c8.729 0 15.863 7.146 15.863 15.886v58.855a7.939 7.939 0 0 1 1.594-.165h41.292c4.37 0 7.937 3.567 7.937 7.937v142.95c0 4.371-3.567 7.938-7.937 7.938h-41.292c-.543 0-1.075-.06-1.594-.154v65.352c0 8.74-7.134 15.886-15.863 15.886H15.874c-8.74 0-15.886-7.146-15.886-15.886V186.582c0-13.11 10.713-23.823 23.823-23.823zm30.591 43.418h480.384v227.648H54.402V206.176z"/></svg>
