<svg id="icon" xmlns="http://www.w3.org/2000/svg" width="64" height="64" shape-rendering="geometricPrecision" text-rendering="geometricPrecision" image-rendering="optimizeQuality" fill-rule="evenodd" clip-rule="evenodd" viewBox="0 0 640 640"><path d="M259.456 0h131.258c11.197 0 20.35 9.154 20.35 20.339v210.629c0 1.76-.224 3.46-.649 5.09h174.652c13.43 0 24.414 10.985 24.414 24.414v34.595c0 13.441-10.985 24.426-24.414 24.426H54.934c-13.43 0-24.414-10.985-24.414-24.426v-34.595c0-13.43 10.985-24.414 24.414-24.414h184.833a20.116 20.116 0 0 1-.661-5.09V20.338C239.106 9.155 248.27 0 259.456 0zM85.466 351.311h476.191L600.327 640H491.605l-50.009-132.12V640H328.8l-50.008-132.12V640H176.02V507.88L126.014 640H46.796l38.67-288.689zM289.988 38.658h70.206c7.83 0 14.244 6.413 14.244 14.244v20.35c0 7.844-6.414 14.245-14.244 14.245h-70.206c-7.843 0-14.244-6.401-14.244-14.244v-20.35c0-7.832 6.401-14.245 14.244-14.245z"/></svg>
