<svg id="icon" xmlns="http://www.w3.org/2000/svg" width="64" height="64" shape-rendering="geometricPrecision" text-rendering="geometricPrecision" image-rendering="optimizeQuality" fill-rule="evenodd" clip-rule="evenodd" viewBox="0 0 640 640"><path fill-rule="nonzero" d="M594.515 566.499c-18.083 25.099-43.713 44.398-73.595 54.603a10.548 10.548 0 0 1-8.646.035v.308c0 10.216-8.35 18.555-18.58 18.555h-39.992c-10.228 0-18.567-8.339-18.567-18.555V334.304c0-10.217 8.339-18.568 18.567-18.568h39.993c10.228 0 18.579 8.35 18.579 18.568v1.748a10.526 10.526 0 0 1 7.63-.367l-.012.048c22.713 7.57 43.028 20.398 59.47 37.028v-64.714c0-77.528-26.009-143.895-71.93-190.644l-20.34 30.379C445.706 102.202 386.047 73.454 320 73.454c-66.485 0-126.498 29.126-167.908 75.249l-24.614-30.13c-45.343 46.24-71.044 111.698-71.044 189.475v74.221c17.728-21.26 41.233-37.583 68.091-46.536l-.012-.047a10.554 10.554 0 0 1 7.642.366v-1.748c0-10.217 8.362-18.567 18.567-18.567h40.017c10.204 0 18.567 8.35 18.567 18.567v287.14c0 10.218-8.363 18.556-18.567 18.556H150.72c-10.204 0-18.567-8.339-18.567-18.555v-.307c-1.3.578-2.764.91-4.287.91-1.548 0-3.024-.343-4.347-.946-29.882-10.204-55.524-29.504-73.607-54.603-9.46-13.134-16.866-27.827-21.72-43.618h-16.23V308.048c0-84.734 34.655-161.742 90.474-217.574C158.257 34.654 235.277-.012 320-.012c84.734 0 161.754 34.666 217.574 90.486 55.82 55.831 90.462 132.84 90.462 217.574V522.88h-11.8a150.395 150.395 0 0 1-21.72 43.618z"/></svg>
