<svg id="icon" xmlns="http://www.w3.org/2000/svg" width="64" height="64" shape-rendering="geometricPrecision" text-rendering="geometricPrecision" image-rendering="optimizeQuality" fill-rule="evenodd" clip-rule="evenodd" viewBox="0 0 640 640"><path d="M224.589 285.5l-38.528 23.504L158.6 290.97c-3.638-10.914-16.146-21.083-37.5-30.32l-56.824-24.898C21.461 216.983 0 193.763 0 166.054c0-14.74 5.504-27.237 16.523-37.406 10.997-10.17 24.438-15.296 40.111-15.296 22.394 0 42.072 7.547 58.962 22.666 16.795 15.118 25.18 32.74 25.18 52.701 0 1.5-.365 6.532-1.11 15.118l-.283 6.249c-.378 4.015-.567 7.004-.567 9.059 0 13.051 10.359 24.342 31.17 33.862 3.638 1.76 7.181 3.72 10.63 5.681l43.973 26.812zm125.588 152.199l211.916 107.175L640 530.098 406.056 360.55c-25.182-18.26-25.418-22.677-56.198-13.76l-9.898 2.859-58.359-32.564-40.5 25.867 63.213 44.728 3.992 13.772c7.028 24.237 19.548 24.957 41.87 36.249zm-13.736-237.003L545.168 95.14l84.721 6.827-232.349 170.99c-25.11 18.484-29.752 30.378-60.898 21.354l-13.607-3.933-24.449 13.642-67.028 38.918c-10.181 5.965-17.268 9.78-21.083 11.197l-5.988 2.232c-15.662 5.788-23.505 16.229-23.505 31.335v2.528l.567 6.803.827 13.441c1.228 24.697-12.118 48.769-40.193 72.096-28.087 23.516-57.65 35.268-88.62 35.268-15.685 0-28.464-4.016-38.528-11.941C5.043 497.97 0 487.979 0 475.767c0-15.863 15.579-33.592 46.748-53.08l86.576-54.107c18.934-11.847 28.442-22.477 28.442-31.902 0-1.11-.19-2.894-.473-5.504l76.513-47.729 49.583-31.099 4.784-16.488c6.567-22.69 23.658-24.733 44.268-35.162zm-279.807 7.795l13.334 6.544c12.036 5.693 21.827 8.492 29.292 8.492 14.563 0 21.839-10.181 21.839-30.603 0-14.929-6.72-28.736-20.244-41.327-13.43-12.59-28.276-18.85-44.505-18.85-9.709 0-18 3.366-25.004 10.086-6.992 6.803-10.536 14.823-10.536 24.06 0 15.496 11.941 29.386 35.824 41.598zm55.5 197.046l-62.587 38.977c-19.122 12.036-28.737 22.571-28.737 31.43 0 7.382 2.894 12.791 8.764 16.43 5.788 3.637 14.563 5.503 26.221 5.503 24.071 0 47.67-9.425 70.808-28.17 23.126-18.756 34.69-37.878 34.69-57.366 0-13.158-5.776-19.69-17.245-19.69-6.91 0-17.54 4.3-31.914 12.886zm119.116-77.056c8.87 0 13.347-4.299 13.347-12.886 0-8.586-4.477-12.862-13.347-12.862-8.764 0-13.146 4.276-13.146 12.862 0 8.587 4.382 12.886 13.146 12.886z"/></svg>
