<svg id="icon" xmlns="http://www.w3.org/2000/svg" width="64" height="64" viewBox="0 0 640 640" shape-rendering="geometricPrecision" text-rendering="geometricPrecision" image-rendering="optimizeQuality" fill-rule="evenodd" clip-rule="evenodd"><path d="M336.984 19.925l284.98 310.315c19.24 20.942 17.043 54.084-4.181 73.017L366.878 626.961c-21.19 18.91-54.095 17.032-73.005-4.193L26.267 322.564l.508-8.835L4.853.001l322.622 20.422c3.107-.213 6.272-.378 9.508-.496zM131.257 61.938c31.985.708 57.355 27.224 56.646 59.22-.708 31.986-27.224 57.356-59.209 56.647-31.985-.708-57.355-27.224-56.658-59.21.708-31.984 27.236-57.354 59.221-56.657zm50.41 218.093l184.16 200.66-36.709 33.709-184.16-200.684 36.71-33.686zm155.46-141.958l184.182 200.672-36.72 33.697-184.16-200.66 36.696-33.71zm-74.01 69.284L447.3 408.005l-36.732 33.697-184.16-200.66 36.709-33.685z"/></svg>
