<svg id="icon" viewBox="0 0 512 512" xmlns="http://www.w3.org/2000/svg" width="512" height="512"><path d="M425.228 100.457s-.425-2.308-1.734-3.144c-1.311-.836-2.732-.998-2.732-.998l-41.082-3.057-30.228-30.053c-1.147-.874-2.471-1.385-3.817-1.66-3.219-.624-7.548.125-8.347.312l-15.682 4.853c-6.812-20.11-16.118-34.432-27.795-42.716-8.634-6.101-18.146-8.695-28.363-7.922-2.146-2.857-4.51-5.352-7.099-7.448-11.334-9.157-25.955-10.579-43.446-4.241-52.454 19.05-74.722 87.029-82.75 120.987l-45.716 14.16s-10.767 3.069-13.293 6.088c-2.775 3.318-3.306 12.301-3.306 12.301l-38.78 299.087L323.215 511.5l157.728-34.133-55.715-376.91zM263.326 84.763l-50.513 15.632c6.693-26.211 19.555-52.996 44.145-63.438 5.108 13.374 6.518 31.675 6.368 47.806zm-42.429-63.862c10.685-3.88 18.894-3.706 25.069.461-32.96 15.033-47.351 52.909-53.563 85.357l-40.445 12.525c9.032-32.66 29.186-83.909 68.939-98.343zm28.307 220.417a89 89 0 0 0-8.134-3.456 88.816 88.816 0 0 0-10.174-3.131 86.165 86.165 0 0 0-11.758-2.046 78.768 78.768 0 0 0-12.918-.312c-4.11.25-7.834.985-11.109 2.158-3.256 1.148-6.075 2.745-8.396 4.729-2.32 1.971-4.148 4.329-5.439 7.049-1.279 2.707-2.034 5.751-2.177 9.132a17.972 17.972 0 0 0 1.16 7.235c.879 2.346 2.258 4.641 4.129 6.912 1.884 2.295 4.267 4.565 7.167 6.886 2.913 2.358 6.351 4.729 10.317 7.211 5.564 3.568 11.253 7.585 16.661 12.188 5.489 4.679 10.679 9.956 15.139 15.969 4.517 6.076 8.271 12.888 10.804 20.522 2.545 7.71 3.849 16.206 3.438 25.562-.667 15.308-4.023 28.506-9.569 39.447-5.477 10.804-13.037 19.287-22.144 25.45-8.907 6.013-19.225 9.743-30.446 11.24-10.897 1.459-22.581.811-34.632-1.847-.088-.013-.188-.05-.287-.075-.094-.012-.188-.037-.281-.049-.093-.025-.187-.051-.287-.075-.094-.013-.188-.038-.287-.062a115.418 115.418 0 0 1-16.225-5.228c-5.046-2.033-9.781-4.354-14.097-6.861-4.254-2.482-8.109-5.14-11.446-7.896-3.3-2.732-6.107-5.539-8.309-8.371l13.292-44.113a112.641 112.641 0 0 0 8.115 6.237 120.361 120.361 0 0 0 10.504 6.637c3.842 2.146 7.947 4.13 12.17 5.751 4.279 1.635 8.683 2.907 13.049 3.543 3.855.562 7.298.449 10.311-.224 3.038-.687 5.626-1.946 7.748-3.681 2.133-1.709 3.786-3.893 4.94-6.4 1.154-2.532 1.809-5.364 1.934-8.396.137-3.044-.138-5.901-.905-8.671-.761-2.781-2.008-5.464-3.799-8.158-1.791-2.683-4.111-5.377-7.048-8.159-2.907-2.757-6.394-5.602-10.523-8.62-5.084-3.793-9.85-7.897-14.122-12.363-4.217-4.417-7.959-9.195-11.022-14.372-3.031-5.14-5.42-10.691-6.967-16.729-1.541-6.001-2.251-12.501-1.953-19.587.524-11.839 2.889-22.755 6.85-32.573 4.004-9.931 9.674-18.838 16.785-26.511 7.255-7.822 16.075-14.422 26.242-19.499 10.461-5.228 22.419-8.895 35.674-10.629a139.388 139.388 0 0 1 17.628-1.21c5.664-.025 10.985.312 15.881.936 4.965.636 9.488 1.559 13.499 2.694 4.042 1.147 7.548 2.495 10.436 3.967l-19.419 57.849zm31.632-161.969a256.363 256.363 0 0 0-.149-6.038c-.587-15.719-2.721-28.956-6.351-39.685 3.955.399 7.548 1.709 10.829 4.03 9.145 6.475 15.731 19.511 20.372 34.045l-24.701 7.648z"/></svg>
