<svg id="icon" viewBox="0 0 512 512" xmlns="http://www.w3.org/2000/svg" width="512" height="512"><path d="M450.523 265.38C408.868 434.426 129.16 506.139.5 330.649c49.285 47.04 135.112 51.213 189.533-5.076-31.92 4.672-55.153-26.668-15.928-43.59-35.242 3.854-54.874-14.9-62.904-30.85 8.25-8.637 17.382-12.688 35.022-13.842-38.604-9.127-52.855-28.011-57.213-50.954 10.698-2.547 24.088-4.758 31.409-3.769-33.805-17.679-45.54-44.305-43.685-64.306 60.413 22.454 98.911 40.476 131.099 57.743 11.458 6.143 24.281 17.171 38.708 31.186 18.376-48.649 41.096-98.752 79.98-123.624-.645 5.644-3.664 10.883-7.665 15.176 11.056-10.031 25.361-16.931 39.927-18.926-1.67 10.951-17.404 17.111-26.928 20.673 7.209-2.246 45.492-19.322 49.673-9.576 4.921 11.046-26.419 16.157-31.728 18.066a211.396 211.396 0 0 0-11.881 4.413c48.478-4.843 94.795 35.211 108.302 84.893a220.616 220.616 0 0 1 2.813 11.734c17.73 6.606 49.888-.327 60.229-6.702-7.484 17.722-26.928 30.772-55.652 33.156 13.816 5.746 39.9 8.938 57.889 5.866-11.39 12.226-29.714 23.289-60.977 23.04z"/></svg>
