<svg id="icon" viewBox="0 0 512 512" xmlns="http://www.w3.org/2000/svg" width="512" height="512"><path d="M248.639 123.48c-5.447-29.712 8.601-60.286 25.518-80.894C292.803 19.854 324.799 2.415 352.141.5c4.624 31.149-8.088 61.499-24.822 82.965-17.949 23.061-48.813 40.947-78.68 40.015zm160.39 107.648c8.463-23.604 25.222-44.841 51.226-59.172-26.282-32.794-63.169-51.828-97.992-51.828-46.064 0-65.534 21.944-97.53 21.944-32.96 0-57.97-21.944-97.866-21.944-39.124 0-80.776 23.845-107.187 64.578-9.714 15.046-16.297 33.751-19.882 54.585-9.951 58.444 4.916 134.558 49.279 202.143 21.57 32.802 50.318 69.738 87.878 70.063 33.46.324 42.958-21.392 88.244-21.624 45.361-.25 53.957 21.849 87.375 21.524 37.572-.316 67.9-41.194 89.475-73.988 15.354-23.529 21.167-35.414 33.11-62.021-60.731-22.906-85.704-89.817-66.13-144.26z"/></svg>
