<svg id="icon" xmlns="http://www.w3.org/2000/svg" viewBox="0 0 24 24"><path fill="none" d="M0 0h24v24H0z"/><path d="M11.5 5a4.513 4.513 0 0 1 4.48 4.154l.142 1.86 1.867-.012h.092A3 3 0 0 1 21 14c0 .748-.28 1.452-.783 2H3.28A1.9 1.9 0 0 1 3 15c0-1.074.85-1.953 1.915-1.998.06.007.118.012.178.015l2.66.124-.622-2.587A4.53 4.53 0 0 1 7 9.5C7 7.02 9.02 5 11.5 5m0-2A6.5 6.5 0 0 0 5 9.5c0 .524.07 1.03.186 1.52C5.123 11.015 5.064 11 5 11c-2.21 0-4 1.79-4 4 0 1.202.54 2.267 1.38 3h18.593A4.978 4.978 0 0 0 23 14c0-2.76-2.24-5-5-5l-.025.002A6.496 6.496 0 0 0 11.5 3z"/></svg>
